<svg id="Capa_1" enable-background="new 0 0 512 512" viewBox="0 0 512 512" xmlns="http://www.w3.org/2000/svg"><g><g><g><path d="m491.187 28.51h-470.374c-11.495 0-20.813 9.319-20.813 20.813v208.13c0 11.495 9.318 20.813 20.813 20.813h21.854l213.333-32.625 213.333 32.625h21.854c11.494 0 20.813-9.318 20.813-20.813v-208.13c0-11.494-9.318-20.813-20.813-20.813z" fill="#dff6fd"/></g><g><path d="m491.187 28.51h-27.057c11.495 0 20.813 9.318 20.813 20.813v208.13c0 10.109-7.209 18.528-16.766 20.413l1.156.4h21.854c11.494 0 20.813-9.318 20.813-20.813v-208.13c0-11.495-9.318-20.813-20.813-20.813z" fill="#c8effe"/></g><g><path d="m469.333 278.266h-426.666l6.955-33.383c2.011-9.651 10.517-16.568 20.376-16.568h372.006c9.859 0 18.365 6.917 20.376 16.568z" fill="#62dbfb"/></g><g><circle cx="386.081" cy="178.364" fill="#a2e62e" r="16.65"/></g><g><circle cx="452.683" cy="178.364" fill="#f37c7c" r="16.65"/></g><g><path d="m312.195 195.014h-112.39c-9.196 0-16.65-7.455-16.65-16.65 0-9.196 7.455-16.65 16.65-16.65h112.39c9.196 0 16.65 7.455 16.65 16.65.001 9.196-7.454 16.65-16.65 16.65z" fill="#918291"/></g></g><g><g><path d="m284.098 77.636h-56.195c-4.143 0-7.5-3.358-7.5-7.5s3.357-7.5 7.5-7.5h56.195c4.143 0 7.5 3.358 7.5 7.5s-3.358 7.5-7.5 7.5z" fill="#918291"/></g><g fill="#99e6fc"><path d="m256 322.799c-4.143 0-7.5 3.358-7.5 7.5v145.691c0 4.142 3.357 7.5 7.5 7.5s7.5-3.358 7.5-7.5v-145.691c0-4.142-3.357-7.5-7.5-7.5z"/><path d="m294.504 354.018c-4.143 0-7.5 3.358-7.5 7.5v72.846c0 4.142 3.357 7.5 7.5 7.5s7.5-3.358 7.5-7.5v-72.846c0-4.142-3.358-7.5-7.5-7.5z"/><path d="m419.382 339.106h-9.15v-9.15c0-4.142-3.357-7.5-7.5-7.5s-7.5 3.358-7.5 7.5v9.15h-9.15c-4.143 0-7.5 3.358-7.5 7.5s3.357 7.5 7.5 7.5h9.15v9.15c0 4.142 3.357 7.5 7.5 7.5s7.5-3.358 7.5-7.5v-9.15h9.15c4.143 0 7.5-3.358 7.5-7.5s-3.358-7.5-7.5-7.5z"/><path d="m101.769 354.106v9.15c0 4.142 3.357 7.5 7.5 7.5s7.5-3.358 7.5-7.5v-9.15h9.15c4.143 0 7.5-3.358 7.5-7.5s-3.357-7.5-7.5-7.5h-9.15v-9.15c0-4.142-3.357-7.5-7.5-7.5s-7.5 3.358-7.5 7.5v9.15h-9.15c-4.143 0-7.5 3.358-7.5 7.5s3.357 7.5 7.5 7.5z"/><path d="m217.496 354.018c-4.143 0-7.5 3.358-7.5 7.5v72.846c0 4.142 3.357 7.5 7.5 7.5s7.5-3.358 7.5-7.5v-72.846c0-4.142-3.357-7.5-7.5-7.5z"/><path d="m413.498 468.49h-12.295c-33.461 0-60.684-27.223-60.684-60.684v-77.507c0-4.142-3.357-7.5-7.5-7.5s-7.5 3.358-7.5 7.5v77.507c0 41.732 33.951 75.684 75.684 75.684h12.295c4.143 0 7.5-3.358 7.5-7.5s-3.357-7.5-7.5-7.5z"/><path d="m178.98 322.799c-4.143 0-7.5 3.358-7.5 7.5v77.507c0 33.461-27.223 60.684-60.684 60.684h-12.294c-4.143 0-7.5 3.358-7.5 7.5s3.357 7.5 7.5 7.5h12.295c41.732 0 75.684-33.952 75.684-75.684v-77.507c-.001-4.142-3.358-7.5-7.501-7.5z"/></g></g></g><g/><g/><g/><g/><g/><g/><g/><g/><g/><g/><g/><g/><g/><g/><g/></svg>