<svg id="Capa_1" enable-background="new 0 0 511.999 511.999" height="512" viewBox="0 0 511.999 511.999" width="512" xmlns="http://www.w3.org/2000/svg"><g><path d="m387.108 357.349c8.284 0 15-6.716 15-15v-158.556c0-80.009-65.092-145.101-145.101-145.101-80.008 0-145.1 65.092-145.1 145.101v158.556c0 8.284 6.716 15 15 15z" fill="#ff4a00"/><path d="m257.007 38.693c-.337 0-.671.01-1.008.013v318.643h131.108c8.284 0 15-6.716 15-15v-158.556c.001-80.008-65.091-145.1-145.1-145.1z" fill="#f13700"/><path d="m230.792 357.349v-131.459c0-8.284 6.716-15 15-15h20.415c8.284 0 15 6.716 15 15v131.459z" fill="#ff6f2f"/><path d="m281.207 225.89c0-8.284-6.716-15-15-15h-10.207v146.459h25.208v-131.459z" fill="#ff4a00"/><path d="m327.229 166.441c-33.092 0-60.014 26.922-60.014 60.013s26.922 60.013 60.014 60.013c8.284 0 15-6.716 15-15v-90.025c0-8.285-6.716-15.001-15-15.001z" fill="#fdbf00"/><path d="m186.788 165.877c-8.284 0-15 6.716-15 15v90.025c0 8.284 6.716 15 15 15 33.091 0 60.013-26.922 60.013-60.013s-26.923-60.012-60.013-60.012z" fill="#fce000"/><path d="m407.274 327.349h-300.532c-8.284 0-15 6.716-15 15v62.516c0 8.284 6.716 15 15 15h300.532c8.284 0 15-6.716 15-15v-62.516c0-8.284-6.716-15-15-15z" fill="#fff5f5"/><path d="m407.274 327.349h-151.274v92.516h151.274c8.284 0 15-6.716 15-15v-62.516c0-8.284-6.716-15-15-15z" fill="#eee1dd"/><path d="m431.626 389.865h-349.237c-8.284 0-15 6.716-15 15v53.441c0 8.284 6.716 15 15 15h349.237c8.284 0 15-6.716 15-15v-53.441c0-8.284-6.715-15-15-15z" fill="#eee1dd"/><path d="m431.626 389.865h-175.626v83.441h175.627c8.284 0 15-6.716 15-15v-53.441c-.001-8.284-6.716-15-15.001-15z" fill="#c4b4af"/><path d="m433.258 255.443c-3.118 0-6.261-.968-8.953-2.975-6.642-4.951-8.013-14.349-3.062-20.991 8.267-11.089 8.341-36.837.138-47.499-5.052-6.566-3.824-15.983 2.742-21.035 6.566-5.051 15.985-3.825 21.035 2.742 16.328 21.225 16.396 61.911.138 83.722-2.944 3.95-7.463 6.036-12.038 6.036z" fill="#ff4a00"/><path d="m480.817 282.376c-3.063 0-6.154-.936-8.819-2.877-6.696-4.878-8.17-14.261-3.292-20.957 17.59-24.145 17.658-78.289.128-101.64-4.974-6.625-3.635-16.028 2.99-21.002 6.625-4.975 16.028-3.635 21.002 2.99 12.253 16.321 19.241 41.354 19.173 68.682-.067 27.097-7.009 52.113-19.045 68.635-2.937 4.031-7.505 6.169-12.137 6.169z" fill="#ff4a00"/><g fill="#ff6f2f"><path d="m78.741 255.443c-4.575 0-9.094-2.086-12.038-6.036-16.258-21.811-16.19-62.497.138-83.722 5.051-6.565 14.471-7.794 21.035-2.742 6.566 5.052 7.794 14.469 2.742 21.035-8.203 10.662-8.129 36.41.138 47.499 4.951 6.643 3.58 16.04-3.062 20.991-2.692 2.006-5.836 2.975-8.953 2.975z"/><path d="m31.182 282.376c-4.633 0-9.2-2.138-12.137-6.169-12.036-16.521-18.977-41.538-19.045-68.634-.068-27.327 6.92-52.36 19.173-68.682 4.974-6.626 14.375-7.964 21.002-2.99 6.625 4.974 7.964 14.377 2.99 21.002-17.53 23.351-17.462 77.495.128 101.64 4.878 6.696 3.404 16.079-3.292 20.957-2.665 1.941-5.756 2.876-8.819 2.876z"/></g></g></svg>