<svg height="512pt" viewBox="0 0 512 512" width="512pt" xmlns="http://www.w3.org/2000/svg"><path d="m241 0h30v77h-30zm0 0" fill="#0b799d"/><path d="m241 437h30v75h-30zm0 0" fill="#0b799d"/><path d="m256 0h15v77h-15zm0 0" fill="#07485e"/><path d="m256 437h15v75h-15zm0 0" fill="#07485e"/><path d="m121 0h30v77h-30zm0 0" fill="#0b799d"/><path d="m121 437h30v75h-30zm0 0" fill="#0b799d"/><g fill="#07485e"><path d="m361 0h30v77h-30zm0 0"/><path d="m436 122h76v30h-76zm0 0"/><path d="m361 437h30v75h-30zm0 0"/></g><path d="m0 122h76v30h-76zm0 0" fill="#0b799d"/><path d="m0 242h76v30h-76zm0 0" fill="#0b799d"/><path d="m436 242h76v30h-76zm0 0" fill="#07485e"/><path d="m0 362h76v30h-76zm0 0" fill="#0b799d"/><path d="m436 362h76v30h-76zm0 0" fill="#07485e"/><path d="m451 62h-210l-15 12.597656-15-12.597656h-150v90l12.300781 15-12.300781 15v30l12.300781 17.699219-12.300781 12.300781v210h210l15-15 15 15h150v-90l-10.800781-15 10.800781-15v-30l-15-14.398438 15-15.601562zm0 0" fill="#73bcff"/><path d="m451 272-15 15.601562 15 14.398438v30l-10.800781 15 10.800781 15v90h-150l-15-15-15 15h-15v-390h195zm0 0" fill="#5697e5"/><path d="m451 272v30h-210v-60h-180v-30h210v60zm0 0" fill="#beebfa"/><path d="m166 362c-24.8125 0-45-20.1875-45-45s20.1875-45 45-45 45 20.1875 45 45-20.1875 45-45 45zm0 0" fill="#beebfa"/><path d="m346 242c-24.8125 0-45-20.1875-45-45s20.1875-45 45-45 45 20.1875 45 45-20.1875 45-45 45zm0 0" fill="#7ed8f6"/><path d="m451 332v30h-90v30h-30v-60zm0 0" fill="#7ed8f6"/><path d="m361 122v45h-30v-15h-120v-90h30v60zm0 0" fill="#beebfa"/><path d="m181 122v60h-120v-30h90v-30zm0 0" fill="#beebfa"/><path d="m301 362v90h-30v-60h-120v-45h30v15zm0 0" fill="#beebfa"/><path d="m256 362h45v90h-30v-60h-15zm0 0" fill="#7ed8f6"/><path d="m331 152h-75v-30h105v45h-30zm0 0" fill="#7ed8f6"/><path d="m451 272v30h-195v-90h15v60zm0 0" fill="#7ed8f6"/></svg>