<svg enable-background="new 0 0 256 256" viewBox="0 0 256 256" xmlns="http://www.w3.org/2000/svg"><g id="_x32_9_Air_Conditioner"><g><path d="m234.903 41.765h-213.806c-9.435 0-17.114 7.677-17.114 17.114v66.017c.046.388.075 1.312.677 2.189l13.19 19.255c3.191 4.659 8.47 7.441 14.121 7.441h192.059c5.651 0 10.93-2.782 14.121-7.441l13.19-19.255c.636-.927.599-1.799.677-2.189v-66.017c0-9.437-7.68-17.114-17.115-17.114zm-3.149 100.194c-1.745 2.549-4.632 4.07-7.725 4.07h-192.059c-3.092 0-5.98-1.521-7.725-4.07l-9.034-13.188h225.577zm12.512-20.938h-232.532v-62.142c0-5.162 4.201-9.363 9.363-9.363h213.806c5.162 0 9.363 4.201 9.363 9.363z"/><path d="m157.377 85.363h-58.754c-7.437 0-13.489 6.05-13.489 13.487 0 7.435 6.052 13.485 13.489 13.485h58.754c7.437 0 13.485-6.05 13.485-13.485 0-7.437-6.048-13.487-13.485-13.487zm0 19.221h-58.754c-3.164 0-5.738-2.572-5.738-5.734s2.574-5.736 5.738-5.736h58.754c3.16 0 5.734 2.574 5.734 5.736s-2.574 5.734-5.734 5.734z"/><path d="m27.981 61.466c-2.142 0-3.876 1.735-3.876 3.876v4.47c0 2.14 1.733 3.876 3.876 3.876s3.876-1.735 3.876-3.876v-4.47c0-2.141-1.733-3.876-3.876-3.876z"/><path d="m45.819 61.466c-2.142 0-3.876 1.735-3.876 3.876v4.47c0 2.14 1.733 3.876 3.876 3.876s3.876-1.735 3.876-3.876v-4.47c-.001-2.141-1.734-3.876-3.876-3.876z"/><path d="m63.656 61.466c-2.142 0-3.876 1.735-3.876 3.876v4.47c0 2.14 1.733 3.876 3.876 3.876s3.876-1.735 3.876-3.876v-4.47c0-2.141-1.734-3.876-3.876-3.876z"/><path d="m34.665 212.384 24.396-39.751c1.12-1.824.549-4.212-1.275-5.333-1.824-1.116-4.209-.553-5.333 1.275l-24.396 39.751c-1.12 1.824-.549 4.212 1.275 5.333 1.821 1.112 4.206.555 5.333-1.275z"/><path d="m73.652 211.695 14.639-39.751c.738-2.01-.288-4.235-2.297-4.977-1.998-.734-4.231.288-4.977 2.297l-14.639 39.751c-.738 2.01.288 4.235 2.297 4.977 1.999.735 4.231-.28 4.977-2.297z"/><path d="m112.517 210.828 4.879-39.751c.261-2.127-1.249-4.057-3.372-4.318-2.199-.31-4.061 1.249-4.318 3.372l-4.878 39.751c-.261 2.127 1.249 4.057 3.372 4.318 2.03.284 4.052-1.192 4.317-3.372z"/><path d="m147.802 214.2c2.123-.261 3.633-2.195 3.372-4.318l-4.882-39.751c-.257-2.123-2.15-3.69-4.318-3.372-2.123.261-3.633 2.195-3.372 4.318l4.882 39.751c.262 2.168 2.274 3.657 4.318 3.372z"/><path d="m187.322 213.992c2.01-.738 3.035-2.967 2.297-4.977l-14.635-39.751c-.738-2.01-2.967-3.039-4.977-2.297-2.01.738-3.035 2.967-2.297 4.977l14.635 39.751c.747 2.021 2.982 3.03 4.977 2.297z"/><path d="m226.667 213.659c1.824-1.12 2.396-3.508 1.275-5.333l-24.396-39.751c-1.128-1.828-3.512-2.392-5.333-1.275-1.824 1.12-2.396 3.508-1.275 5.333l24.396 39.751c1.128 1.829 3.512 2.388 5.333 1.275z"/></g></g><g id="Layer_1"/></svg>