<svg id="Layer_1" enable-background="new 0 0 48 48" height="512" viewBox="0 0 48 48" width="512" xmlns="http://www.w3.org/2000/svg"><g><path d="m36.18 23.56c.05-.13.07-.26.06-.39 0-.01-.01-.02-.01-.03-.03-.38-.26-.72-.64-.87l-8.6-3.22c0-.02.01-.04.01-.05s-.01-.04-.01-.05l8.6-3.22c.37-.14.61-.48.64-.85 0-.02.01-.03.01-.04.01-.13-.01-.26-.06-.39-1.32-3.52-4.09-6.3-7.62-7.61-.03-.01-.06-.01-.1-.02-.36-.1-.73.01-.98.26-.09.09-.16.21-.21.34l-3.22 8.6c-.01-.01-.03-.02-.05-.02s-.04.01-.05.01l-3.22-8.6c-.18-.48-.69-.73-1.18-.6-.03.01-.07 0-.1.02-3.52 1.32-6.3 4.09-7.62 7.61-.05.13-.07.26-.06.39 0 .02.01.03.01.04.03.37.27.71.64.85l8.6 3.22c0 .02-.01.04-.01.05s.01.04.01.05l-8.6 3.22c-.38.14-.61.49-.64.87 0 .01-.01.02-.01.03-.01.13.01.26.06.39 1.32 3.52 4.09 6.3 7.61 7.61.12.04.23.06.35.06.41 0 .79-.25.94-.65l3.22-8.6c.02 0 .04.01.05.01s.04-.01.05-.01l3.22 8.6c.15.4.53.65.94.65.12 0 .24-.02.35-.06 3.53-1.3 6.3-4.07 7.62-7.6zm-7.4-14.47c2.24 1.08 4.05 2.89 5.13 5.13l-7.63 2.86c-.11-.13-.23-.25-.36-.36zm-9.56 19.82c-2.24-1.08-4.05-2.89-5.13-5.13l7.63-2.86c.11.13.23.25.36.36zm2.5-11.83-7.63-2.86c1.08-2.24 2.89-4.05 5.13-5.13l2.86 7.63c-.13.11-.25.23-.36.36zm2.28 2.92c-.55 0-1-.45-1-1s.45-1 1-1 1 .45 1 1-.45 1-1 1zm4.78 8.91-2.86-7.63c.13-.11.25-.23.36-.36l7.63 2.86c-1.08 2.24-2.89 4.05-5.13 5.13z"/><path d="m28 36.28v-1.81c6.89-1.78 12-8.03 12-15.47 0-8.82-7.18-16-16-16s-16 7.18-16 16c0 7.44 5.11 13.69 12 15.47v1.81c0 .55.45 1 1 1v2.72h-2c-.55 0-1 .45-1 1v3c0 .55.45 1 1 1h10c.55 0 1-.45 1-1v-3c0-.55-.45-1-1-1h-2v-2.72c.55 0 1-.45 1-1zm0 5.72v1h-8v-1h2 4zm-6-6.72v-.42c.66.08 1.32.14 2 .14s1.34-.06 2-.14v.42zm3 2v2.72h-2v-2.72zm-1-4.28c-7.72 0-14-6.28-14-14s6.28-14 14-14 14 6.28 14 14-6.28 14-14 14z"/></g></svg>