<svg id="Layer_1" enable-background="new 0 0 468 468" height="512" viewBox="0 0 468 468" width="512" xmlns="http://www.w3.org/2000/svg"><g><path d="m265.241 211.329c0-17.362-14.082-31.487-31.391-31.487-17.31 0-31.392 14.125-31.392 31.487 0 14.602 9.961 26.911 23.424 30.458l.159 33.364c.021 4.405 3.599 7.849 7.999 7.849h.039c4.418 0 7.982-3.462 7.962-7.88l-.159-33.352c13.431-3.569 23.359-15.861 23.359-30.439zm-31.39 15.488c-8.487 0-15.392-6.948-15.392-15.488s6.904-15.487 15.392-15.487c8.486 0 15.391 6.947 15.391 15.487s-6.905 15.488-15.391 15.488z"/><path d="m437.971 202.006c-13.785 0-25.422 8.994-28.936 21.994h-53.848c3.159-15 5.456-30 7.242-46h39.072c4.418 0 7.499-3.271 7.499-7.689v-76.4c13-3.493 22.323-15.13 22.323-28.917 0-16.539-13.345-29.994-29.904-29.994-16.558 0-30.216 13.455-30.216 29.994 0 13.756 9.797 25.371 21.797 28.893v68.113h-28.917c1.163-12 2.09-24.925 2.951-37.666.345-5.107-4.256-9-9.212-8.23-9.5 1.817-19.106 3.186-28.797 3.186-32.19-.002-61.768-14.598-89.943-44.177-4.006-3.413-7.946-3.34-11.819.219-29.92 35.101-71.437 49.693-117.079 40.769-4.974-.973-9.863 3.125-9.517 8.235.877 12.943 1.8 25.664 2.927 37.664h-26.594v-68.113c12-3.522 21.901-15.136 21.901-28.893 0-16.539-13.513-29.994-30.071-29.994s-29.966 13.455-29.966 29.994c0 13.788 9.136 25.424 22.136 28.917v76.399c0 4.418 3.412 7.689 7.83 7.689h36.382c1.768 16 4.023 31 7.134 46h-53.38c-3.515-13-15.151-21.994-28.936-21.994-16.559.001-30.03 13.457-30.03 29.996 0 16.538 13.471 29.993 30.029 29.993 13.785 0 25.421-8.994 28.936-21.994h57.196c4.284 16.035 10.34 30.908 17.087 46h-64.418c-4.418 0-7.83 3.272-7.83 7.69v80.411c-13 3.507-22.113 15.133-22.113 28.905 0 16.539 13.428 29.994 29.986 29.994 16.559 0 30.093-13.455 30.093-29.994 0-13.772-8.966-25.398-21.966-28.905v-72.101h65.406c20.488 32 49.777 54.538 88.761 69.076 1.882.564 3.767.569 5.653.014 38.623-14.777 67.706-38.09 88.128-69.09h68.052v72.101c-12 3.507-21.779 15.133-21.779 28.905 0 16.539 13.596 29.994 30.155 29.994s29.841-13.455 29.841-29.994c0-13.772-9.217-25.398-22.217-28.905v-80.41c0-4.418-3.081-7.69-7.499-7.69h-67.342c6.877-15.047 12.917-29.985 17.192-46h57.683c3.515 13 15.151 21.994 28.936 21.994 16.559-.001 30.03-13.456 30.03-29.995s-13.471-29.994-30.029-29.994zm-50.455-137.012c0-7.717 6.293-13.994 14.028-13.994s14.029 6.277 14.029 13.994-6.294 13.994-14.029 13.994-14.028-6.277-14.028-13.994zm-332.758 0c0-7.717 6.294-13.994 14.029-13.994s14.029 6.277 14.029 13.994-6.294 13.994-14.029 13.994-14.029-6.277-14.029-13.994zm-24.729 181c-7.735 0-14.029-6.277-14.029-13.993 0-7.717 6.294-13.994 14.029-13.994s14.029 6.277 14.029 13.994c.001 7.716-6.293 13.993-14.029 13.993zm52.83 157.012c0 7.717-6.294 13.994-14.029 13.994s-14.028-6.277-14.028-13.994 6.293-13.994 14.028-13.994 14.029 6.277 14.029 13.994zm332.671 0c0 7.717-6.294 13.994-14.029 13.994s-14.029-6.277-14.029-13.994 6.294-13.994 14.029-13.994 14.029 6.277 14.029 13.994zm-298.194-269.548c43.165 5.563 87.267-7.884 116.324-41.139 31.447 30.49 72.458 48.458 116.711 41.078-7.479 102.809-22.89 184.176-116.445 221.453-93.611-36.4-109.059-118.058-116.59-221.392zm320.635 112.536c-7.735 0-14.029-6.277-14.029-13.993 0-7.717 6.294-13.994 14.029-13.994s14.029 6.277 14.029 13.994c0 7.716-6.294 13.993-14.029 13.993z"/></g></svg>