<?xml version="1.0" encoding="UTF-8"?>
<svg xmlns="http://www.w3.org/2000/svg" xmlns:xlink="http://www.w3.org/1999/xlink" version="1.1" id="Capa_1" x="0px" y="0px" viewBox="0 0 511.354 511.354" style="enable-background:new 0 0 511.354 511.354;" xml:space="preserve" width="512" height="512">
<g>
	
		<line style="fill:none;stroke:#000000;stroke-width:30;stroke-linecap:round;stroke-linejoin:round;stroke-miterlimit:10;" x1="346.355" y1="255.677" x2="74.813" y2="255.677"/>
	<g>
		<path style="fill:none;stroke:#000000;stroke-width:30;stroke-linecap:round;stroke-linejoin:round;stroke-miterlimit:10;" d="&#10;&#9;&#9;&#9;M15,310.006l295.022,0.765c16.663,0,30.171,13.508,30.171,30.171l0,0c0,16.663-13.508,30.171-30.171,30.171h-9.579"/>
		<path style="fill:none;stroke:#000000;stroke-width:30;stroke-linecap:round;stroke-linejoin:round;stroke-miterlimit:10;" d="&#10;&#9;&#9;&#9;M15,201.111h295.022c16.663,0,30.171-13.508,30.171-30.171l0,0c0-16.663-13.508-30.171-30.171-30.171h-9.579"/>
	</g>
	<g>
		<path style="fill:none;stroke:#000000;stroke-width:30;stroke-linecap:round;stroke-linejoin:round;stroke-miterlimit:10;" d="&#10;&#9;&#9;&#9;M226.487,364.609c0,56.653,45.926,102.579,102.579,102.579h0c56.653,0,102.579-45.926,102.579-102.579v-13.572"/>
		<path style="fill:none;stroke:#000000;stroke-width:30;stroke-linecap:round;stroke-linejoin:round;stroke-miterlimit:10;" d="&#10;&#9;&#9;&#9;M226.487,146.746c0-56.653,45.926-102.579,102.579-102.579h0c56.653,0,102.579,45.926,102.579,102.579v13.572"/>
	</g>
	<g>
		<path style="fill:none;stroke:#000000;stroke-width:30;stroke-linecap:round;stroke-linejoin:round;stroke-miterlimit:10;" d="&#10;&#9;&#9;&#9;M393.776,153.098c56.653,0,102.579,45.926,102.579,102.579v0c0,56.653-45.926,102.579-102.579,102.579"/>
		<path style="fill:none;stroke:#000000;stroke-width:30;stroke-linecap:round;stroke-linejoin:round;stroke-miterlimit:10;" d="&#10;&#9;&#9;&#9;M393.776,298.256c23.479,0,42.579-19.101,42.579-42.579s-19.101-42.579-42.579-42.579"/>
	</g>
	<g>
		<path style="fill:none;stroke:#000000;stroke-width:30;stroke-linecap:round;stroke-linejoin:round;stroke-miterlimit:10;" d="&#10;&#9;&#9;&#9;M202.987,201.111c-33.636,0-60.903-27.267-60.903-60.903s27.267-60.903,60.903-60.903c14.355,0,27.55,4.966,37.961,13.275"/>
		<path style="fill:none;stroke:#000000;stroke-width:30;stroke-linecap:round;stroke-linejoin:round;stroke-miterlimit:10;" d="&#10;&#9;&#9;&#9;M241.607,418.24c-10.51,8.629-23.961,13.809-38.621,13.809c-33.636,0-60.903-27.267-60.903-60.903s27.267-60.903,60.903-60.903"/>
	</g>
</g>















</svg>
