<?xml version="1.0" encoding="UTF-8" standalone="no"?>
<!-- Created with Inkscape (http://www.inkscape.org/) -->

<svg
   version="1.1"
   id="svg1446"
   xml:space="preserve"
   width="682.66669"
   height="682.66669"
   viewBox="0 0 682.66669 682.66669"
   xmlns="http://www.w3.org/2000/svg"
   xmlns:svg="http://www.w3.org/2000/svg"><defs
     id="defs1450"><clipPath
       clipPathUnits="userSpaceOnUse"
       id="clipPath1460"><path
         d="M 0,512 H 512 V 0 H 0 Z"
         id="path1458" /></clipPath></defs><g
     id="g1452"
     transform="matrix(1.3333333,0,0,-1.3333333,0,682.66667)"><g
       id="g1454"><g
         id="g1456"
         clip-path="url(#clipPath1460)"><g
           id="g1462"
           transform="translate(226,75.0112)"><path
             d="m 0,0 c -25.327,0 -45.931,20.608 -45.931,45.94 0,25.331 20.604,45.94 45.931,45.94 25.327,0 45.931,-20.609 45.931,-45.94 C 45.931,20.608 25.327,0 0,0 Z"
             style="fill:none;stroke:#000000;stroke-width:30;stroke-linecap:round;stroke-linejoin:round;stroke-miterlimit:10;stroke-dasharray:none;stroke-opacity:1"
             id="path1464" /></g><g
           id="g1466"
           transform="translate(226,166.8916)"><path
             d="M 0,0 V 210.89"
             style="fill:none;stroke:#000000;stroke-width:30;stroke-linecap:round;stroke-linejoin:round;stroke-miterlimit:10;stroke-dasharray:none;stroke-opacity:1"
             id="path1468" /></g><g
           id="g1470"
           transform="translate(285.4429,208.6587)"><path
             d="m 0,0 v 228.298 0.589 c 0,32.836 -26.614,59.454 -59.443,59.454 -32.829,0 -59.443,-26.618 -59.443,-59.454 V 228.298 0 c -28.055,-19.059 -46.488,-51.229 -46.488,-87.707 0,-58.516 47.427,-105.952 105.931,-105.952 58.505,0 105.931,47.436 105.931,105.952 C 46.488,-51.229 28.056,-19.059 0,0 Z"
             style="fill:none;stroke:#000000;stroke-width:30;stroke-linecap:round;stroke-linejoin:round;stroke-miterlimit:10;stroke-dasharray:none;stroke-opacity:1"
             id="path1472" /></g><g
           id="g1474"
           transform="translate(345.4429,257.5117)"><path
             d="M 0,0 H 46.488"
             style="fill:none;stroke:#000000;stroke-width:30;stroke-linecap:round;stroke-linejoin:round;stroke-miterlimit:10;stroke-dasharray:none;stroke-opacity:1"
             id="path1476" /></g><g
           id="g1478"
           transform="translate(345.4429,317.5229)"><path
             d="M 0,0 H 46.488"
             style="fill:none;stroke:#000000;stroke-width:30;stroke-linecap:round;stroke-linejoin:round;stroke-miterlimit:10;stroke-dasharray:none;stroke-opacity:1"
             id="path1480" /></g><g
           id="g1482"
           transform="translate(345.4429,377.5347)"><path
             d="M 0,0 H 46.488"
             style="fill:none;stroke:#000000;stroke-width:30;stroke-linecap:round;stroke-linejoin:round;stroke-miterlimit:10;stroke-dasharray:none;stroke-opacity:1"
             id="path1484" /></g><g
           id="g1486"
           transform="translate(345.4429,437.5459)"><path
             d="M 0,0 H 46.488"
             style="fill:none;stroke:#000000;stroke-width:30;stroke-linecap:round;stroke-linejoin:round;stroke-miterlimit:10;stroke-dasharray:none;stroke-opacity:1"
             id="path1488" /></g></g></g></g></svg>
