<svg id="svg9247" height="512" viewBox="0 0 16.933333 16.933333" width="512" xmlns="http://www.w3.org/2000/svg" xmlns:svg="http://www.w3.org/2000/svg"><g id="layer1" transform="translate(0 -280.067)"><path id="path2320" d="m5.8204455 281.12565c-.874894 0-1.58789.71104-1.58789 1.58594v7.9375c-.8004136.53684-1.3207636 1.40858-1.3222656 2.38086a.26460981.26460981 0 0 0 0 .002c0 1.60424 1.3059056 2.91016 2.9101556 2.91016 1.604239-.00001 2.910157-1.30592 2.910157-2.91016-.0011-.97362-.520303-1.84781-1.322266-2.38476v-7.93556c0-.8749-.712997-1.58594-1.587891-1.58594z" fill="#e9e9ff" font-variant-ligatures="normal" font-variant-position="normal" font-variant-caps="normal" font-variant-numeric="normal" font-variant-alternates="normal" font-feature-settings="normal" text-indent="0" text-align="start" text-decoration-line="none" text-decoration-style="solid" text-decoration-color="#000000" text-transform="none" text-orientation="mixed" white-space="normal" shape-padding="0" isolation="auto" mix-blend-mode="normal" solid-color="#000000" solid-opacity="1" vector-effect="none"/><g fill="#3abeff"><path id="path1846-4" d="m5.8165395 288.00065a.26460981.26460981 0 0 0 -.259765.26758v3.70508a.26460981.26460981 0 1 0 .527343 0v-3.70508a.26460981.26460981 0 0 0 -.267578-.26758z" font-variant-ligatures="normal" font-variant-position="normal" font-variant-caps="normal" font-variant-numeric="normal" font-variant-alternates="normal" font-feature-settings="normal" text-indent="0" text-align="start" text-decoration-line="none" text-decoration-style="solid" text-decoration-color="#000000" text-transform="none" text-orientation="mixed" white-space="normal" shape-padding="0" isolation="auto" mix-blend-mode="normal" solid-color="#000000" solid-opacity="1" vector-effect="none"/><path id="path2326" d="m5.8204455 291.70768c-.72749 0-1.322265.59673-1.322265 1.32422s.594775 1.32227 1.322265 1.32227c.727491 0 1.322266-.59478 1.322266-1.32227s-.594775-1.32422-1.322266-1.32422z" font-variant-ligatures="normal" font-variant-position="normal" font-variant-caps="normal" font-variant-numeric="normal" font-variant-alternates="normal" font-feature-settings="normal" text-indent="0" text-align="start" text-decoration-line="none" text-decoration-style="solid" text-decoration-color="#000000" text-transform="none" text-orientation="mixed" white-space="normal" shape-padding="0" isolation="auto" mix-blend-mode="normal" solid-color="#000000" solid-opacity="1" vector-effect="none"/><path id="path1886-5" d="m1.2970089 289.06315a.26495431.26495431 0 0 0 .02539.5293h1.5878911a.26465.26465 0 1 0 0-.5293h-1.587891a.26460981.26460981 0 0 0 -.02539 0z" font-variant-ligatures="normal" font-variant-position="normal" font-variant-caps="normal" font-variant-numeric="normal" font-variant-alternates="normal" font-feature-settings="normal" text-indent="0" text-align="start" text-decoration-line="none" text-decoration-style="solid" text-decoration-color="#000000" text-transform="none" text-orientation="mixed" white-space="normal" shape-padding="0" isolation="auto" mix-blend-mode="normal" solid-color="#000000" solid-opacity="1" vector-effect="none"/><path id="path1888-3" d="m1.8263059 287.47526a.26495431.26495431 0 0 0 .02539.5293h1.0585941a.26465.26465 0 1 0 0-.5293h-1.058594a.26460981.26460981 0 0 0 -.02539 0z" font-variant-ligatures="normal" font-variant-position="normal" font-variant-caps="normal" font-variant-numeric="normal" font-variant-alternates="normal" font-feature-settings="normal" text-indent="0" text-align="start" text-decoration-line="none" text-decoration-style="solid" text-decoration-color="#000000" text-transform="none" text-orientation="mixed" white-space="normal" shape-padding="0" isolation="auto" mix-blend-mode="normal" solid-color="#000000" solid-opacity="1" vector-effect="none"/><path id="path1890-5" d="m1.3223989 285.88737a.26465.26465 0 1 0 0 .5293h1.587891a.26465.26465 0 1 0 0-.5293z" font-variant-ligatures="normal" font-variant-position="normal" font-variant-caps="normal" font-variant-numeric="normal" font-variant-alternates="normal" font-feature-settings="normal" text-indent="0" text-align="start" text-decoration-line="none" text-decoration-style="solid" text-decoration-color="#000000" text-transform="none" text-orientation="mixed" white-space="normal" shape-padding="0" isolation="auto" mix-blend-mode="normal" solid-color="#000000" solid-opacity="1" vector-effect="none"/><path id="path1892-6" d="m1.8516959 284.29948a.26465.26465 0 1 0 0 .5293h1.058594a.26465.26465 0 1 0 0-.5293z" font-variant-ligatures="normal" font-variant-position="normal" font-variant-caps="normal" font-variant-numeric="normal" font-variant-alternates="normal" font-feature-settings="normal" text-indent="0" text-align="start" text-decoration-line="none" text-decoration-style="solid" text-decoration-color="#000000" text-transform="none" text-orientation="mixed" white-space="normal" shape-padding="0" isolation="auto" mix-blend-mode="normal" solid-color="#000000" solid-opacity="1" vector-effect="none"/><path id="path1894-3" d="m1.3223989 282.71159a.26465003.26465003 0 1 0 0 .5293h1.587891a.26465003.26465003 0 1 0 0-.5293z" font-variant-ligatures="normal" font-variant-position="normal" font-variant-caps="normal" font-variant-numeric="normal" font-variant-alternates="normal" font-feature-settings="normal" text-indent="0" text-align="start" text-decoration-line="none" text-decoration-style="solid" text-decoration-color="#000000" text-transform="none" text-orientation="mixed" white-space="normal" shape-padding="0" isolation="auto" mix-blend-mode="normal" solid-color="#000000" solid-opacity="1" vector-effect="none"/><path id="path11927-8-6" d="m12.166185 281.12177a.26460981.26460981 0 0 0 -.259932.26768v.9493l-.607197-.60771a.26460981.26460981 0 0 0 -.189653-.0801.26460981.26460981 0 0 0 -.183452.45527l.980302.98185v1.54719l-1.341519-.77463-.359669-1.33842a.26460981.26460981 0 0 0 -.2495975-.20102.26460981.26460981 0 0 0 -.259932.33745l.221692.82785-.821137-.47387a.26460981.26460981 0 0 0 -.152448-.0372.26460981.26460981 0 0 0 -.113686.4961l.821137.47387-.826823.22117a.26483444.26483444 0 0 0 .136943.5116l1.3389375-.35812 1.341003.77412-1.340487.77411-1.3394535-.35967a.26460981.26460981 0 0 0 -.07803-.0103v.00053a.26460981.26460981 0 0 0 -.05891.52141l.828892.22169-.823206.47543a.26460981.26460981 0 1 0 .266134.45733l.821137-.47387-.221692.82941a.26460981.26460981 0 1 0 .5095295.13642l.360185-1.33997 1.341003-.77411v1.54771l-.980302.9803a.26460981.26460981 0 1 0 .373105.37517l.607197-.60771v.94981a.2648415.2648415 0 1 0 .529683 0v-.94723l.605131.60513a.26528612.26528612 0 1 0 .375171-.37517l-.980302-.97824v-1.54977l1.340488.77359.358634 1.34101a.26483423.26483423 0 1 0 .511596-.13695l-.221692-.8294.82114.47387a.26460981.26460981 0 1 0 .265615-.45734l-.822687-.4749.828889-.22221a.26460981.26460981 0 0 0 -.06666-.52142.26460981.26460981 0 0 0 -.07028.01l-1.338934.36019-1.341523-.77464 1.341004-.77411 1.339453.35812a.26483458.26483458 0 1 0 .136943-.5116l-.826823-.22117.820621-.47388a.26460981.26460981 0 0 0 -.148309-.49609.26460981.26460981 0 0 0 -.117306.0372l-.82114.47387.221692-.82785a.26460981.26460981 0 0 0 -.267684-.33745.26460981.26460981 0 0 0 -.243912.20102l-.358118 1.33894-1.341004.77411v-1.54948l.980302-.97979a.2652856.2652856 0 0 0 -.375171-.37517l-.605131.60513v-.94671a.26460981.26460981 0 0 0 -.269751-.26768z" font-variant-ligatures="normal" font-variant-position="normal" font-variant-caps="normal" font-variant-numeric="normal" font-variant-alternates="normal" font-feature-settings="normal" text-indent="0" text-align="start" text-decoration-line="none" text-decoration-style="solid" text-decoration-color="#000000" text-transform="none" text-orientation="mixed" white-space="normal" shape-padding="0" isolation="auto" mix-blend-mode="normal" solid-color="#000000" solid-opacity="1" vector-effect="none"/></g><path id="path17446" d="m5.8203215 281.12591c-.185767 0-.363276.0336-.529167.0925.615498.21835 1.058849.80424 1.058849 1.49344v8.4646c.801963.53695 1.3213 1.41125 1.322401 2.38487 0 .92417-.434829 1.74747-1.108977 2.281 1.245166-.32974 2.16731-1.46299 2.16731-2.81016-.0011-.97363-.520438-1.84792-1.3224-2.38487v-7.93544c0-.8749-.713124-1.58594-1.588016-1.58594z" fill="#d4d4e8" font-variant-ligatures="normal" font-variant-position="normal" font-variant-caps="normal" font-variant-numeric="normal" font-variant-alternates="normal" font-feature-settings="normal" text-indent="0" text-align="start" text-decoration-line="none" text-decoration-style="solid" text-decoration-color="#000000" text-transform="none" text-orientation="mixed" white-space="normal" shape-padding="0" isolation="auto" mix-blend-mode="normal" solid-color="#000000" solid-opacity="1" vector-effect="none"/><path id="path17632" d="m5.8203215 291.70769c-.188357 0-.366625.0412-.529167.11317.465455.20576.793231.67201.793231 1.2113 0 .53927-.327792 1.00349-.793231 1.20871.162552.0717.340797.11317.529167.11317.72749 0 1.322398-.5944 1.322398-1.32188 0-.7275-.594908-1.32447-1.322398-1.32447z" fill="#35ade8" font-variant-ligatures="normal" font-variant-position="normal" font-variant-caps="normal" font-variant-numeric="normal" font-variant-alternates="normal" font-feature-settings="normal" text-indent="0" text-align="start" text-decoration-line="none" text-decoration-style="solid" text-decoration-color="#000000" text-transform="none" text-orientation="mixed" white-space="normal" shape-padding="0" isolation="auto" mix-blend-mode="normal" solid-color="#000000" solid-opacity="1" vector-effect="none"/></g></svg>