<svg id="Capa_1" enable-background="new 0 0 511.998 511.998" height="512" viewBox="0 0 511.998 511.998" width="512" xmlns="http://www.w3.org/2000/svg"><g><path d="m285.504 389.844v48.624h-59.01v-48.624" fill="#4f66d0"/><path d="m255.999 399.712c-110.201 0-199.856-89.655-199.856-199.856s89.655-199.856 199.856-199.856 199.856 89.655 199.856 199.856-89.655 199.856-199.856 199.856zm0-384.489c-101.807 0-184.633 82.826-184.633 184.633s82.826 184.633 184.633 184.633c101.806 0 184.633-82.826 184.633-184.633s-82.826-184.633-184.633-184.633z" fill="#c0d6f2"/><path d="m305.269 78.744c0-27.211-22.059-49.269-49.269-49.269s-49.27 22.058-49.27 49.269 22.059 89.567 49.269 89.567 49.27-62.356 49.27-89.567z" fill="#e5eef9"/><g fill="#e5eef9"><path d="m126.371 217.576c-23.565 13.605-31.639 43.738-18.034 67.303s43.738 31.639 67.303 18.034 66.538-63.887 52.933-87.452-78.637-11.491-102.202 2.115z"/><path d="m336.358 302.913c23.565 13.605 53.698 5.531 67.303-18.034s5.531-53.698-18.034-67.303-88.597-25.68-102.202-2.115 29.368 73.846 52.933 87.452z"/></g><path d="m305.424 430.282h-98.851c-26.996 0-50.578 18.25-57.349 44.383l-9.673 37.333h232.896l-9.673-37.333c-6.772-26.133-30.354-44.383-57.35-44.383z" fill="#6c7fd8"/><path d="m257.203 430.277c-26.47.56-49.426 18.658-56.097 44.385l-9.685 37.337h-51.87l9.665-37.337c6.773-26.133 30.36-44.385 57.349-44.385z" fill="#4f66d0"/><circle cx="255.999" cy="471.14" fill="#ffd15b" r="20.191"/><circle cx="255.999" cy="199.856" fill="#c0d6f2" r="49.269"/><path d="m272.105 246.43c-5.041 1.742-10.46 2.689-16.102 2.689-27.213 0-49.273-22.06-49.273-49.263 0-27.213 22.06-49.273 49.273-49.273 5.642 0 11.061.947 16.102 2.699-19.3 6.671-33.161 25.003-33.161 46.574-.001 21.56 13.861 39.893 33.161 46.574z" fill="#b2caec"/><g fill="#c0d6f2"><path d="m255.999 301.9c-56.268 0-102.045-45.777-102.045-102.045 0-56.267 45.777-102.044 102.045-102.044 56.267 0 102.044 45.777 102.044 102.044 0 56.269-45.776 102.045-102.044 102.045zm0-188.866c-47.873 0-86.822 38.948-86.822 86.821s38.948 86.822 86.822 86.822c47.873 0 86.821-38.948 86.821-86.822s-38.948-86.821-86.821-86.821z"/><path d="m255.999 351.678c-83.715 0-151.823-68.107-151.823-151.823 0-83.715 68.107-151.822 151.823-151.822s151.822 68.107 151.822 151.822c0 83.716-68.107 151.823-151.822 151.823zm0-288.422c-75.321 0-136.6 61.278-136.6 136.599s61.278 136.6 136.6 136.6c75.321 0 136.599-61.278 136.599-136.6 0-75.32-61.278-136.599-136.599-136.599z"/></g></g></svg>