<svg height="128" viewBox="0 0 128 128" width="128" xmlns="http://www.w3.org/2000/svg"><g><g><path d="m64.15 120.7c15.081 0 24.306-19.089 14.6-31.569-.588 4.091-2.751 7.152-4.915 8.043-.812-16.474-11.107-20.838-11.107-20.838s-8.8 7.364-9.628 21.409c-2.234-.125-5.584-3.8-6.511-6.319-5.089 13.514 4.886 29.274 17.561 29.274z" fill="#fd5e24"/><path d="m64.851 120.7c-14.871 0-11.065-16.083-11.065-16.083s2.572 1.479 4.118 2.569c.48-9.679 5.362-13.514 5.362-13.514a21.338 21.338 0 0 1 6.026 13.654 41.436 41.436 0 0 0 4.946-2.432c1.613 7.288-1.938 15.806-9.387 15.806z" fill="#ffc77c"/></g><g><path d="m102.7 7.321-4.246 6.045a3.839 3.839 0 0 1 -3.14 1.634h-62.628a3.839 3.839 0 0 1 -3.141-1.633l-4.245-6.046z" fill="#675b87"/><path d="m34.791 15v8.53a5.317 5.317 0 0 0 5.317 5.318h47.784a5.318 5.318 0 0 0 5.317-5.318v-8.53z" fill="#51417d"/><g fill="#413a55"><path d="m45.377 25.194a1.5 1.5 0 0 1 -1.5-1.5v-3.541a1.5 1.5 0 0 1 3 0v3.541a1.5 1.5 0 0 1 -1.5 1.5z"/><path d="m54.688 25.194a1.5 1.5 0 0 1 -1.5-1.5v-3.541a1.5 1.5 0 0 1 3 0v3.541a1.5 1.5 0 0 1 -1.5 1.5z"/><path d="m64 25.194a1.5 1.5 0 0 1 -1.5-1.5v-3.541a1.5 1.5 0 1 1 3 0v3.541a1.5 1.5 0 0 1 -1.5 1.5z"/><path d="m73.311 25.194a1.5 1.5 0 0 1 -1.5-1.5v-3.541a1.5 1.5 0 1 1 3 0v3.541a1.5 1.5 0 0 1 -1.5 1.5z"/><path d="m82.623 25.194a1.5 1.5 0 0 1 -1.5-1.5v-3.541a1.5 1.5 0 0 1 3 0v3.541a1.5 1.5 0 0 1 -1.5 1.5z"/></g><path d="m78.553 37.869h-29.106l-2.809-9.021h34.724z" fill="#675b87"/></g><g fill="#e2e7f3"><g><path d="m22.565 118.9a1.5 1.5 0 0 1 -1.256-.678 41.845 41.845 0 0 1 0-44.081 1.5 1.5 0 0 1 2.51 1.644 38.849 38.849 0 0 0 0 40.793 1.5 1.5 0 0 1 -1.254 2.322z"/><path d="m31.42 110.739a1.5 1.5 0 0 1 -1.207-.609 24.55 24.55 0 0 1 0-27.893 1.5 1.5 0 1 1 2.412 1.783 21.564 21.564 0 0 0 0 24.327 1.5 1.5 0 0 1 -1.2 2.392z"/></g><g><path d="m105.405 118.9a1.5 1.5 0 0 1 -1.254-2.322 38.849 38.849 0 0 0 0-40.793 1.5 1.5 0 0 1 2.51-1.644 41.845 41.845 0 0 1 0 44.081 1.5 1.5 0 0 1 -1.256.678z"/><path d="m96.55 110.739a1.5 1.5 0 0 1 -1.2-2.391 21.565 21.565 0 0 0 0-24.328 1.5 1.5 0 0 1 2.413-1.783 24.555 24.555 0 0 1 0 27.893 1.5 1.5 0 0 1 -1.213.609z"/></g></g><path d="m70.042 59.972a6.043 6.043 0 1 1 -12.085 0c0-3.337 6.043-12.766 6.043-12.766s6.042 9.429 6.042 12.766z" fill="#00d8f5"/></g></svg>