<?xml version="1.0" encoding="iso-8859-1"?>
<!-- Generator: Adobe Illustrator 19.0.0, SVG Export Plug-In . SVG Version: 6.00 Build 0)  -->
<svg version="1.1" id="Layer_1" xmlns="http://www.w3.org/2000/svg" xmlns:xlink="http://www.w3.org/1999/xlink" x="0px" y="0px"
	 viewBox="0 0 512.001 512.001" style="enable-background:new 0 0 512.001 512.001;" xml:space="preserve">
<path style="fill:#C1C1C1;" d="M281.27,512.001h-41.23c-5.083,0-9.204-4.121-9.204-9.204v-19.24h59.639v19.24
	C290.474,507.88,286.353,512.001,281.27,512.001z"/>
<path style="fill:#FFEB8E;" d="M179.996,396.791c0-86.766-41.166-113.215-41.166-113.215c-64.773-64.872-64.773-170.05,0-234.922
	s169.79-64.871,234.564,0c24.289,24.327,39.47,54.321,45.544,85.733c0,0,2.805,12.441,2.813,28.82
	c0.008,15.582-1.695,28.16-1.695,28.16c-5.155,33.749-20.709,66.215-46.661,92.208c0,0-32.081,26.448-32.081,113.215
	L179.996,396.791L179.996,396.791z"/>
<path style="fill:#C1C1C1;" d="M332.108,483.557H189.2c-5.083,0-9.204-4.121-9.204-9.204v-77.562h161.317v77.562
	C341.313,479.436,337.193,483.557,332.108,483.557z"/>
<rect x="179.994" y="440.171" style="fill:#E2E2E2;" width="161.32" height="21.44"/>
<path style="fill:#FFDC65;" d="M191.443,60.746c-35.797,22.076-59.665,61.689-59.664,106.883
	c0,69.272,56.07,125.427,125.235,125.427c69.167,0,125.238-56.155,125.238-125.427S326.182,42.2,257.015,42.2
	c0,0-17.336-1.193-34.613,3.961C205.702,51.143,191.443,60.746,191.443,60.746z"/>
<path style="fill:#FFC846;" d="M205.742,84.038c-27.992,17.263-46.655,48.237-46.654,83.577c0,54.167,43.844,98.077,97.928,98.077
	c54.084,0,97.929-43.911,97.929-98.077c0-54.167-43.844-98.078-97.929-98.078c0,0-13.555-0.933-27.066,3.097
	C216.891,76.531,205.742,84.038,205.742,84.038z"/>
<g>
	<ellipse style="fill:#EFEFEF;" cx="218.158" cy="184.309" rx="17.472" ry="17.5"/>
	<ellipse style="fill:#EFEFEF;" cx="298.812" cy="184.309" rx="17.472" ry="17.5"/>
	<path style="fill:#EFEFEF;" d="M218.159,405.42c-4.766,0-8.629-4.025-8.629-8.989V193.3c0-4.966,3.864-8.989,8.629-8.989
		s8.629,4.025,8.629,8.989V396.43C226.788,401.395,222.925,405.42,218.159,405.42z"/>
	<path style="fill:#EFEFEF;" d="M298.813,405.42c-4.767,0-8.629-4.025-8.629-8.989V193.3c0-4.966,3.862-8.989,8.629-8.989
		s8.629,4.025,8.629,8.989V396.43C307.443,401.395,303.579,405.42,298.813,405.42z"/>
</g>
<rect x="179.994" y="396.795" style="fill:#E2E2E2;" width="161.32" height="21.44"/>
<g>
</g>
<g>
</g>
<g>
</g>
<g>
</g>
<g>
</g>
<g>
</g>
<g>
</g>
<g>
</g>
<g>
</g>
<g>
</g>
<g>
</g>
<g>
</g>
<g>
</g>
<g>
</g>
<g>
</g>
</svg>
