<svg xmlns="http://www.w3.org/2000/svg" version="1.1" xmlns:xlink="http://www.w3.org/1999/xlink" xmlns:svgjs="http://svgjs.com/svgjs" width="512" height="512" x="0" y="0" viewBox="0 0 512.001 512.001" style="enable-background:new 0 0 512 512" xml:space="preserve" class=""><g><path d="M281.27 512.001h-41.23a9.204 9.204 0 0 1-9.204-9.204v-19.24h59.639v19.24a9.206 9.206 0 0 1-9.205 9.204z" style="--darkreader-inline-fill: #b0aca5;" fill="#c1c1c1" data-original="#c1c1c1" data-darkreader-inline-fill="" class=""></path><path d="M179.996 396.791c0-86.766-41.166-113.215-41.166-113.215-64.773-64.872-64.773-170.05 0-234.922s169.79-64.871 234.564 0c24.289 24.327 39.47 54.321 45.544 85.733 0 0 2.805 12.441 2.813 28.82.008 15.582-1.695 28.16-1.695 28.16-5.155 33.749-20.709 66.215-46.661 92.208 0 0-32.081 26.448-32.081 113.215l-161.318.001z" style="--darkreader-inline-fill: #aca7a0;" fill="#c1b4b4" data-original="#ffeb8e" data-darkreader-inline-fill="" class=""></path><path d="M332.108 483.557H189.2a9.204 9.204 0 0 1-9.204-9.204v-77.562h161.317v77.562a9.204 9.204 0 0 1-9.205 9.204z" style="--darkreader-inline-fill: #b0aca5;" fill="#c1c1c1" data-original="#c1c1c1" data-darkreader-inline-fill="" class=""></path><path d="M179.994 440.171h161.32v21.44h-161.32z" style="--darkreader-inline-fill: #c8c4c0;" fill="#e2e2e2" data-original="#e2e2e2" data-darkreader-inline-fill="" class=""></path><path d="M191.443 60.746c-35.797 22.076-59.665 61.689-59.664 106.883 0 69.272 56.07 125.427 125.235 125.427 69.167 0 125.238-56.155 125.238-125.427S326.182 42.2 257.015 42.2c0 0-17.336-1.193-34.613 3.961-16.7 4.982-30.959 14.585-30.959 14.585z" style="--darkreader-inline-fill: #c6c2bd;" fill="#dfdfdf" data-original="#ffdc65" data-darkreader-inline-fill="" class=""></path><path d="M205.742 84.038c-27.992 17.263-46.655 48.237-46.654 83.577 0 54.167 43.844 98.077 97.928 98.077 54.084 0 97.929-43.911 97.929-98.077 0-54.167-43.844-98.078-97.929-98.078 0 0-13.555-.933-27.066 3.097-13.059 3.897-24.208 11.404-24.208 11.404z" style="--darkreader-inline-fill: #b6b2ac;" fill="#d3bfbf" data-original="#ffc846" data-darkreader-inline-fill="" class=""></path><ellipse cx="218.158" cy="184.309" rx="17.472" ry="17.5" style="--darkreader-inline-fill: #dcdad7;" fill="#ffffff" data-original="#efefef" data-darkreader-inline-fill="" class=""></ellipse><ellipse cx="298.812" cy="184.309" rx="17.472" ry="17.5" style="--darkreader-inline-fill: #dcdad7;" fill="#ffffff" data-original="#efefef" data-darkreader-inline-fill="" class=""></ellipse><path d="M218.159 405.42c-4.766 0-8.629-4.025-8.629-8.989V193.3c0-4.966 3.864-8.989 8.629-8.989s8.629 4.025 8.629 8.989v203.13c0 4.965-3.863 8.99-8.629 8.99zM298.813 405.42c-4.767 0-8.629-4.025-8.629-8.989V193.3c0-4.966 3.862-8.989 8.629-8.989s8.629 4.025 8.629 8.989v203.13c.001 4.965-3.863 8.99-8.629 8.99z" style="--darkreader-inline-fill: #dcdad7;" fill="#ffffff" data-original="#efefef" data-darkreader-inline-fill="" class=""></path><path d="M179.994 396.795h161.32v21.44h-161.32z" style="--darkreader-inline-fill: #c8c4c0;" fill="#e2e2e2" data-original="#e2e2e2" data-darkreader-inline-fill="" class=""></path></g></svg>