<svg height="468pt" viewBox="0 -26 468 468" width="468pt" xmlns="http://www.w3.org/2000/svg"><path d="m428.960938 194.96875c-.003907-9.3125 6.574218-17.328125 15.707031-19.148438 9.132812-1.820312 18.277343 3.066407 21.84375 11.671876 3.566406 8.601562.558593 18.523437-7.183594 23.699218-7.742187 5.175782-18.0625 4.164063-24.648437-2.421875-3.667969-3.65625-5.726563-8.621093-5.71875-13.800781zm0 0" fill="#00efd1"/><path d="m424.578125 101.039062c0-9.3125 6.574219-17.328124 15.707031-19.148437 9.136719-1.820313 18.28125 3.066406 21.847656 11.667969 3.566407 8.605468.558594 18.527344-7.183593 23.703125-7.742188 5.175781-18.0625 4.160156-24.648438-2.421875-3.667969-3.65625-5.726562-8.621094-5.722656-13.800782zm0 0" fill="#00efd1"/><path d="m424.578125 296.699219c0-9.3125 6.574219-17.328125 15.707031-19.148438 9.136719-1.820312 18.28125 3.066407 21.847656 11.667969 3.566407 8.605469.558594 18.527344-7.183593 23.703125-7.742188 5.175781-18.0625 4.160156-24.648438-2.421875-3.667969-3.65625-5.726562-8.621094-5.722656-13.800781zm0 0" fill="#00efd1"/><path d="m331.328125 372.011719c9.308594.003906 17.316406 6.582031 19.128906 15.710937s-3.074219 18.265625-11.675781 21.824219-18.515625.546875-23.6875-7.191406c-5.167969-7.742188-4.148438-18.054688 2.4375-24.636719 3.65625-3.660156 8.621094-5.714844 13.796875-5.707031zm0 0" fill="#00acea"/><path d="m237.398438 376.390625c9.308593.003906 17.316406 6.582031 19.128906 15.710937 1.8125 9.128907-3.078125 18.269532-11.675782 21.824219-8.601562 3.558594-18.519531.546875-23.6875-7.191406-5.167968-7.742187-4.148437-18.054687 2.4375-24.632813 3.65625-3.667968 8.621094-5.722656 13.796876-5.710937zm0 0" fill="#00acea"/><path d="m135.671875 372.011719c9.304687.003906 17.3125 6.582031 19.125 15.710937s-3.074219 18.265625-11.675781 21.824219c-8.601563 3.558594-18.515625.546875-23.683594-7.191406-5.171875-7.742188-4.152344-18.054688 2.433594-24.636719 3.65625-3.660156 8.621094-5.714844 13.800781-5.707031zm0 0" fill="#00acea"/><path d="m43.421875 101.039062c0 9.3125-6.574219 17.332032-15.707031 19.148438-9.136719 1.820312-18.28125-3.066406-21.847656-11.667969-3.566407-8.601562-.558594-18.527343 7.183593-23.703125 7.742188-5.175781 18.0625-4.160156 24.648438 2.421875 3.667969 3.65625 5.726562 8.625 5.722656 13.800781zm0 0" fill="#00efd1"/><path d="m43.421875 296.699219c0 9.3125-6.574219 17.332031-15.707031 19.148437-9.136719 1.820313-18.28125-3.066406-21.847656-11.667968-3.566407-8.601563-.558594-18.527344 7.183593-23.703126 7.742188-5.175781 18.0625-4.160156 24.648438 2.421876 3.667969 3.65625 5.726562 8.625 5.722656 13.800781zm0 0" fill="#00efd1"/><path d="m39.039062 194.96875c.003907 9.3125-6.574218 17.332031-15.707031 19.152344-9.132812 1.816406-18.277343-3.070313-21.84375-11.671875-3.566406-8.601563-.558593-18.527344 7.183594-23.703125 7.742187-5.175782 18.0625-4.160156 24.648437 2.425781 3.667969 3.652344 5.726563 8.621094 5.71875 13.796875zm0 0" fill="#00efd1"/><g fill="#f4b844"><path d="m244 284.210938h-14v92.210937l14-.03125zm0 0"/><path d="m129 334v38.039062l14-.027343v-30.800781h42.429688c3.867187 0 6.570312-3.34375 6.570312-7.210938v-49.789062h-14v43h-42.328125c-1.800781-.035157-3.539063.671874-4.800781 1.957031-1.261719 1.285156-1.9375 3.03125-1.871094 4.832031zm0 0"/><path d="m283.78125 341.210938h40.21875v30.828124l14-.027343v-38.011719c.066406-1.800781-.609375-3.546875-1.871094-4.832031-1.261718-1.285157-3-1.992188-4.800781-1.957031h-40.328125v-43h-14v49.789062c-.117188 3.863281 2.917969 7.089844 6.78125 7.210938zm0 0"/><path d="m336 188.210938v14h93l-.039062-14zm0 0"/><path d="m380 296.699219c-.078125 1.761719.59375 3.472656 1.847656 4.714843 1.253906 1.238282 2.972656 1.890626 4.730469 1.796876h38.042969l-.042969-14h-30.578125v-42.269532c0-3.867187-3.554688-6.730468-7.421875-6.730468h-50.578125v14h44zm0 0"/><path d="m394 148.589844v-40.378906h30.621094l-.042969-14h-38c-1.792969-.023438-3.519531.699218-4.765625 1.992187s-1.902344 3.042969-1.8125 4.835937v40.171876h-44v14h50.578125c3.867187 0 7.421875-2.753907 7.421875-6.621094zm0 0"/><path d="m132 188.210938h-93l.039062 14h92.960938zm0 0"/><path d="m132 240.210938h-50.578125c-3.867187 0-7.421875 2.863281-7.421875 6.730468v42.269532h-30.621094l.042969 14h38c1.757813.09375 3.476563-.558594 4.730469-1.796876 1.253906-1.242187 1.925781-2.953124 1.847656-4.714843v-42.488281h44zm0 0"/><path d="m74 108.210938v40.378906c0 3.867187 3.554688 6.621094 7.421875 6.621094h50.578125v-14h-44v-40.171876c.089844-1.792968-.566406-3.542968-1.8125-4.835937s-2.972656-2.015625-4.765625-1.992187h-38.042969l.042969 14zm0 0"/></g><path d="m300.140625 120.601562c-3.867187 0-7-3.136718-7-7v-39.210937c.027344-15.984375-6.285156-31.328125-17.558594-42.660156-11.066406-11.335938-26.238281-17.726563-42.082031-17.730469-32.886719 0-59.640625 27.089844-59.640625 60.390625v39.210937c0 3.863282-3.132813 7-7 7s-7-3.136718-7-7v-39.210937c0-41.019531 33.035156-74.390625 73.640625-74.390625 19.585938-.0078125 38.347656 7.882812 52.039062 21.890625 13.867188 13.945313 21.636719 32.828125 21.597657 52.5v39.207031c0 3.867188-3.132813 7-6.996094 7.003906zm0 0" fill="#00acea"/><path d="m283.78125 284.949219h-152.601562v-169.5h204.640624v169.5zm0 0" fill="#00efd1"/><path d="m250.171875 201.25c0 8.929688-7.242187 16.171875-16.171875 16.171875s-16.171875-7.242187-16.171875-16.171875 7.242187-16.171875 16.171875-16.171875 16.171875 7.242187 16.171875 16.171875zm0 0" fill="#fedb41"/></svg>