<svg id="Capa_1" enable-background="new 0 0 512 512" height="512" viewBox="0 0 512 512" width="512" xmlns="http://www.w3.org/2000/svg"><g><g><path d="m436.75 512h-60.25c-8.284 0-15-6.716-15-15v-60.25c0-8.284 6.716-15 15-15h60.25c8.284 0 15 6.716 15 15v60.25c0 8.284-6.716 15-15 15z" fill="#a3a3cc"/></g><path d="m512 316.25v120.5c0 8.28-6.72 15-15 15h-241l-54-75.25 54-75.25h241c8.28 0 15 6.72 15 15z" fill="#dedef4"/><g><path d="m105.375 331.25c-8.284 0-15-6.716-15-15v-301.25c0-8.284 6.716-15 15-15s15 6.716 15 15v301.25c0 8.284-6.716 15-15 15z" fill="#dedef4"/></g><g><path d="m135.5 512h-60.25c-8.284 0-15-6.716-15-15v-60.25c0-8.284 6.716-15 15-15h60.25c8.284 0 15 6.716 15 15v60.25c0 8.284-6.716 15-15 15z" fill="#c1c1e3"/></g><g><path d="m15 301.25c-8.28 0-15 6.72-15 15v120.5c0 8.28 6.72 15 15 15h241v-150.5z" fill="#f5f5fc"/></g><g><g><path d="m75.25 391.5c7.846 0 15.363-6.899 15-15-.364-8.127-6.591-15-15-15-7.846 0-15.363 6.899-15 15 .364 8.127 6.591 15 15 15z" fill="#f34"/></g></g><g><g><path d="m135.5 391.5c7.846 0 15.363-6.899 15-15-.364-8.127-6.591-15-15-15-7.846 0-15.363 6.899-15 15 .364 8.127 6.591 15 15 15z" fill="#9fe066"/></g></g><g><g><path d="m195.75 391.5c7.846 0 15.363-6.899 15-15-.364-8.127-6.591-15-15-15-7.846 0-15.363 6.899-15 15 .364 8.127 6.591 15 15 15z" fill="#fcc100"/></g></g><g><path d="m346.375 391.5h-30.125c-8.284 0-15-6.716-15-15s6.716-15 15-15h30.125c8.284 0 15 6.716 15 15s-6.716 15-15 15z" fill="#a3a3cc"/></g><g><path d="m436.75 391.5h-30.125c-8.284 0-15-6.716-15-15s6.716-15 15-15h30.125c8.284 0 15 6.716 15 15s-6.716 15-15 15z" fill="#a3a3cc"/></g><g><path d="m397.802 245.287c-3.839 0-7.678-1.465-10.606-4.394-2.857-2.856-6.655-4.43-10.695-4.43s-7.838 1.573-10.695 4.43c-5.857 5.857-15.355 5.857-21.213 0s-5.858-15.355 0-21.213c8.523-8.523 19.855-13.217 31.908-13.217s23.385 4.693 31.908 13.217c5.858 5.857 5.858 15.355 0 21.213-2.93 2.929-6.768 4.394-10.607 4.394z" fill="#4dccff"/></g><g><path d="m440.405 202.684c-3.839 0-7.677-1.464-10.606-4.394-14.237-14.236-33.165-22.077-53.298-22.077s-39.062 7.841-53.298 22.077c-5.857 5.857-15.355 5.857-21.213 0s-5.858-15.355 0-21.213c19.902-19.903 46.364-30.864 74.511-30.864s54.609 10.961 74.511 30.864c5.858 5.857 5.858 15.355 0 21.213-2.929 2.929-6.769 4.394-10.607 4.394z" fill="#4dccff"/></g><g><path d="m483.008 160.08c-3.839 0-7.678-1.465-10.606-4.394-52.88-52.879-138.923-52.879-191.803 0-5.857 5.858-15.355 5.858-21.213 0-5.858-5.857-5.858-15.355 0-21.213 64.577-64.576 169.651-64.576 234.229 0 5.858 5.857 5.858 15.355 0 21.213-2.929 2.929-6.768 4.394-10.607 4.394z" fill="#4dccff"/></g></g></svg>