<svg clip-rule="evenodd" fill-rule="evenodd" height="512" stroke-linejoin="round" stroke-miterlimit="2" viewBox="0 0 32 32" width="512" xmlns="http://www.w3.org/2000/svg"><g id="Icon"><path id="path12239" d="m16 2c-.243 0-.486.089-.678.266l-13 12c-.303.279-.404.714-.254 1.097.15.384.52.637.932.637h2v9c0 2.761 2.239 5 5 5h12c2.761 0 5-2.239 5-5v-9h2c.412 0 .782-.253.932-.637.15-.383.049-.818-.254-1.097l-13-12c-.192-.177-.435-.266-.678-.266zm0 2.361 10.441 9.639h-.441c-.552 0-1 .448-1 1v10c0 1.657-1.343 3-3 3h-2.25c.116-.154.139-.184.25-.332.649-.866 1-1.918 1-3v-1.84c1.165-.412 2-1.523 2-2.828 0-1.656-1.344-3-3-3s-3 1.344-3 3c0 1.305.835 2.416 2 2.828v1.84c0 .649-.211 1.279-.6 1.799l-1.15 1.533h-4.25v-10.172c1.165-.412 2-1.523 2-2.828 0-1.656-1.344-3-3-3s-3 1.344-3 3c0 1.305.835 2.416 2 2.828v10.172h-1c-1.657 0-3-1.343-3-3v-10c0-.552-.448-1-1-1h-.441zm-4 9.639c.552 0 1 .448 1 1s-.448 1-1 1-1-.448-1-1 .448-1 1-1zm8 5c.552 0 1 .448 1 1s-.448 1-1 1-1-.448-1-1 .448-1 1-1z"/></g></svg>