<svg clip-rule="evenodd" fill-rule="evenodd" height="512" stroke-linejoin="round" stroke-miterlimit="2" viewBox="0 0 48 48" width="512" xmlns="http://www.w3.org/2000/svg"><g id="Celcius" transform="matrix(.046 0 0 .046 2.661 -2.513)"><g transform="matrix(21.958 0 0 21.958 -35.455 55.188)"><path d="m10.95 33.322v-26.54c0-2.048 1.662-3.71 3.71-3.71 2.047 0 3.709 1.662 3.709 3.71v26.54c1.626 1.16 2.687 3.062 2.687 5.21 0 3.53-2.866 6.396-6.396 6.396-3.531 0-6.397-2.866-6.397-6.396 0-2.148 1.061-4.05 2.687-5.21z" fill="#f6f6f6"/></g><g transform="matrix(21.958 0 0 21.958 -20.972 55.188)"><path d="m30.882 21.564c2.524 0 4.675-.899 6.102-2.565l-1.844-1.757c-1.119 1.23-2.502 1.823-4.104 1.823-3.183 0-5.488-2.24-5.488-5.401 0-3.162 2.305-5.401 5.488-5.401 1.602 0 2.985.593 4.104 1.8l1.844-1.734c-1.427-1.667-3.578-2.566-6.08-2.566-4.719 0-8.228 3.312-8.228 7.901 0 4.588 3.509 7.9 8.206 7.9zm-9.877-13.209c.974 0 1.671-.668 1.671-1.607 0-.938-.697-1.6-1.671-1.6-.962 0-1.665.662-1.665 1.6 0 .939.703 1.607 1.665 1.607zm0-.627c-.528 0-.927-.381-.927-.98 0-.598.399-.979.927-.979.534 0 .933.381.933.979 0 .599-.399.98-.933.98z" fill="#666" fill-rule="nonzero"/></g><g transform="matrix(28.09 0 0 28.09 -584.359 -104.365)"><path d="m29.876 32.885c-1.169.451-2 1.587-2 2.915 0 1.724 1.4 3.124 3.124 3.124s3.124-1.4 3.124-3.124c0-1.328-.831-2.464-2-2.915v-20.804c0-.62-.504-1.124-1.124-1.124s-1.124.504-1.124 1.124z" fill="#fff"/></g><g transform="matrix(28.09 0 0 28.09 -584.359 -104.365)"><path d="m30.1 33.043v-11.871c0-.497.403-.9.9-.9s.9.403.9.9v11.871c1.161.379 2 1.471 2 2.757 0 1.601-1.299 2.9-2.9 2.9s-2.9-1.299-2.9-2.9c0-1.286.839-2.378 2-2.757z" fill="#f33"/></g><g transform="matrix(35.41 0 0 28.09 -811.26 -104.365)"><path d="m30.1 30.181h-.6v.182h.6zm2.4 0h-.6v.182h.6zm-2.4-5h-.6v.182h.6zm2.4 0h-.6v.182h.6zm-2.4-5h-.6v.182h.6zm2.4 0h-.6v.182h.6zm-2.4-5h-.6v.182h.6zm2.4 0h-.6v.182h.6zm-2.4-5h-.6v.182h.6zm2.4 0h-.6v.182h.6z" fill="#c9c9c9"/></g></g></svg>